<svg width="20" height="20" viewBox="0 0 20 20" fill="none" xmlns="http://www.w3.org/2000/svg">
<g clip-path="url(#clip0_1952_36456)">
<rect width="20" height="20" fill="#425BA9"/>
<path d="M1.22383 2.11063C1.63445 2.10195 2.03161 1.8068 2.39935 1.63404C2.6984 1.49355 2.75167 1.09879 3.02737 0.960752C3.18446 0.8821 3.37477 0.885103 3.54446 0.885103C3.73745 0.885103 3.96569 0.850174 4.14385 0.938057C4.63078 1.17825 5.11009 1.3959 5.62891 1.55839C5.80317 1.61296 6.07979 1.63404 6.2623 1.63404C6.53621 1.63404 6.73856 1.67937 6.95831 1.51678C7.33257 1.23986 7.69884 0.998957 8.11952 0.782975C8.31617 0.682015 8.4376 0.467718 8.66166 0.408509C8.81946 0.36681 9.0352 0.271519 9.17696 0.187233C9.30593 0.110547 9.49616 0 9.64752 0C9.73652 0 9.8234 0.0063346 9.91233 0.01513C10.0759 0.0313051 10.3466 0.00158557 10.492 0.102127C10.5652 0.152695 10.6093 0.236132 10.6763 0.291252C10.8555 0.438511 11.083 0.578721 11.3115 0.578721C11.5567 0.578721 11.7236 0.565226 11.9485 0.673283C12.1252 0.758175 12.238 0.84661 12.3528 1.02316C12.4866 1.22889 12.7451 1.39275 12.9719 1.45815C13.0849 1.49073 13.2017 1.51338 13.3154 1.54704C13.4339 1.58208 13.5773 1.6659 13.6948 1.66808C13.8432 1.67083 13.9757 1.72079 14.1224 1.73427C14.3315 1.7535 14.5478 1.73616 14.7576 1.73616C14.9734 1.73616 15.0952 1.58223 15.2514 1.46571C15.4285 1.33355 15.5989 1.23013 15.781 1.10638C15.8848 1.03583 15.9707 1.04236 16.0387 0.919145C16.0949 0.817263 16.1533 0.72988 16.2319 0.646806C16.3402 0.53231 16.5245 0.398369 16.6828 0.374466C17.0845 0.313803 17.3971 -0.0679788 17.8243 0.219384C18.0812 0.392167 18.1936 0.731839 18.4935 0.858625C18.7316 0.959297 18.8646 1.17726 19.0982 1.25957" stroke="#92CAFF" stroke-width="0.1"/>
<path d="M0.483095 3.84679C0.638073 3.878 0.855279 3.91634 1.0145 3.87895C1.10598 3.85746 1.12569 3.74467 1.22384 3.74467" stroke="#92CAFF" stroke-width="0.1"/>
<path d="M1.44928 3.30212C1.70968 3.28982 1.98862 3.30391 2.24727 3.26051C2.29693 3.25218 2.33312 3.21894 2.36715 3.18297C2.41136 3.13624 2.4363 3.07839 2.47987 3.02978C2.5651 2.93469 2.64021 2.79148 2.78583 2.79148C3.0435 2.79148 3.31176 2.75744 3.57488 2.75744" stroke="#92CAFF" stroke-width="0.1"/>
<path d="M4.34782 3.23403C4.69828 3.29451 4.97722 3.22605 5.314 3.13946C5.57929 3.07125 5.84078 2.98359 6.03864 2.77445C6.2358 2.56605 6.55012 2.53572 6.79549 2.42457C6.93248 2.36252 7.08859 2.37759 7.23206 2.33001C7.35012 2.29086 7.467 2.26337 7.5899 2.29975C7.92106 2.39776 8.2661 2.40794 8.56325 2.60424C8.69071 2.68845 8.89125 2.65392 9.01771 2.57966C9.19498 2.47555 9.28302 2.27652 9.42029 2.13143C9.47607 2.07247 9.53957 1.98896 9.6171 1.95744C9.77716 1.89237 9.9906 1.89886 10.1592 1.87989C10.2537 1.86927 10.2631 1.83069 10.3382 1.80424" stroke="#92CAFF" stroke-width="0.1"/>
<path d="M10.1449 2.75743C10.3748 2.75743 10.6037 2.77414 10.8284 2.73095C10.9465 2.70826 11.0716 2.68935 11.1916 2.68935C11.4041 2.68935 11.5507 2.71878 11.7481 2.79904C11.8531 2.84172 11.9964 2.94909 12.0845 3.02221C12.1724 3.0952 12.3025 3.11895 12.3994 3.18296C12.5803 3.30251 12.7747 3.37019 12.9862 3.37019C13.3755 3.37019 13.6283 3.14734 13.9703 3.02221C14.0977 2.97561 14.2627 2.8774 14.38 2.80849C14.4878 2.74522 14.6153 2.74371 14.7182 2.68935" stroke="#92CAFF" stroke-width="0.1"/>
<path d="M15.7488 2.38297C15.9879 2.38297 16.2207 2.41702 16.4645 2.41702C16.716 2.41702 16.802 2.41544 16.9888 2.26193C17.0937 2.17562 17.1205 1.98951 17.2482 1.94042C17.3535 1.89995 17.4573 1.8651 17.5667 1.8383C17.716 1.8017 17.9058 1.82756 18.0355 1.73617" stroke="#92CAFF" stroke-width="0.1"/>
<path d="M19.0982 2.96169C18.8215 2.96169 18.5448 2.96169 18.268 2.96169C18.1809 2.96169 18.1261 2.95978 18.0605 3.02221C17.9508 3.12658 17.7328 3.1044 17.6812 3.26807" stroke="#92CAFF" stroke-width="0.1"/>
<path d="M17.3591 3.91488C16.9083 3.91488 16.4682 3.98296 16.0208 3.98296C15.8379 3.98296 15.7344 3.99188 15.62 4.15318" stroke="#92CAFF" stroke-width="0.1"/>
<path d="M13.913 5.07233C13.5612 5.07233 13.2093 5.07233 12.8574 5.07233C12.7339 5.07233 12.6199 5.11777 12.4942 5.10448C12.3995 5.09447 12.2668 5.08539 12.1757 5.05531C12.1067 5.03253 12.0495 4.9702 11.9807 4.9702" stroke="#92CAFF" stroke-width="0.1"/>
<path d="M10.0805 4.45956H11.1433" stroke="#92CAFF" stroke-width="0.1"/>
<path d="M8.8567 3.84679C8.73135 3.87452 8.56814 3.89898 8.45412 3.96593C8.39278 4.00196 8.31448 3.94891 8.24478 3.94891" stroke="#92CAFF" stroke-width="0.1"/>
<path d="M5.73269 4.86806C5.14745 4.96704 4.52467 4.90211 3.92915 4.90211" stroke="#92CAFF" stroke-width="0.1"/>
<path d="M2.09339 4.35743C2.34365 4.40904 2.61091 4.42551 2.86634 4.42551" stroke="#92CAFF" stroke-width="0.1"/>
<path d="M0.257647 5.92338C0.463367 5.95286 0.698483 6.05955 0.901769 6.05955" stroke="#92CAFF" stroke-width="0.1"/>
<path d="M1.48148 6.33189C1.7736 6.42226 2.08038 6.5021 2.38325 6.5021" stroke="#92CAFF" stroke-width="0.1"/>
<path d="M4.18679 7.08082C4.70216 7.08082 5.24837 7.13334 5.7631 7.07893C5.93996 7.06024 6.07454 6.9669 6.24799 7.01274" stroke="#92CAFF" stroke-width="0.1"/>
<path d="M6.57006 7.55742C6.73538 7.62399 6.87813 7.62526 7.05142 7.62526" stroke="#92CAFF" stroke-width="0.1"/>
<path d="M8.34139 5.88934H9.11433" stroke="#92CAFF" stroke-width="0.1"/>
<path d="M9.72626 6.63827H10.628" stroke="#92CAFF" stroke-width="0.1"/>
<path d="M12.3027 6.87656C12.9093 7.15635 13.6368 6.85636 14.2673 7.04678" stroke="#92CAFF" stroke-width="0.1"/>
<path d="M14.7504 7.65954C14.9534 7.65954 15.1327 7.66028 15.3301 7.6255" stroke="#92CAFF" stroke-width="0.1"/>
<path d="M16.5218 5.92338C16.8553 5.92856 17.1864 5.95742 17.5202 5.95742" stroke="#92CAFF" stroke-width="0.1"/>
<path d="M17.7134 6.63827C18.0477 6.63827 18.6671 6.74916 18.9694 6.53614" stroke="#92CAFF" stroke-width="0.1"/>
<path d="M18.3897 4.25529C18.5927 4.33902 18.781 4.39146 19.0016 4.39146" stroke="#92CAFF" stroke-width="0.1"/>
<path d="M17.2303 8.7489H18.0999" stroke="#92CAFF" stroke-width="0.1"/>
<path d="M18.8406 9.19145C19.1198 9.19145 19.4042 9.15741 19.6779 9.15741" stroke="#92CAFF" stroke-width="0.1"/>
<path d="M18.6473 11.3021C18.8818 11.3742 19.1142 11.4042 19.3559 11.4042" stroke="#92CAFF" stroke-width="0.1"/>
<path d="M18.1642 12.9361C18.5372 12.9984 18.9924 13.0982 19.3559 12.9702" stroke="#92CAFF" stroke-width="0.1"/>
<path d="M16.3285 12.2212C16.4967 12.3083 16.7991 12.4116 16.9727 12.2893" stroke="#92CAFF" stroke-width="0.1"/>
<path d="M16.3929 14.5021C16.5984 14.5315 16.7982 14.5361 17.0048 14.5361" stroke="#92CAFF" stroke-width="0.1"/>
<path d="M17.7456 15.1829H18.6151" stroke="#92CAFF" stroke-width="0.1"/>
<path d="M17.1659 17.0552C17.5082 17.1444 17.8159 17.1574 18.1643 17.1574" stroke="#92CAFF" stroke-width="0.1"/>
<path d="M18.4541 17.4638C18.7422 17.5798 19.1228 17.6275 19.4274 17.634C19.6221 17.6381 19.8021 17.702 20 17.702" stroke="#92CAFF" stroke-width="0.1"/>
<path d="M13.6232 18.6893H14.2673" stroke="#92CAFF" stroke-width="0.1"/>
<path d="M12.3027 15.3872C12.6034 15.4538 12.8893 15.5574 13.1974 15.5574C13.3232 15.5574 13.449 15.5574 13.5749 15.5574C13.6988 15.5574 13.9363 15.5049 14.0097 15.6406C14.0305 15.6791 14.1474 15.7405 14.1868 15.7597C14.2925 15.8113 14.3514 15.8812 14.4462 15.9508C14.5777 16.0472 14.7112 16.1361 14.8792 16.1361" stroke="#92CAFF" stroke-width="0.1"/>
<path d="M12.3027 13.5148C12.7019 13.5844 13.0944 13.5913 13.498 13.5829C13.7055 13.5786 13.9451 13.4264 14.1385 13.3446" stroke="#92CAFF" stroke-width="0.1"/>
<path d="M13.6232 10.1787C13.8578 10.2539 14.2248 10.3714 14.4606 10.2468" stroke="#92CAFF" stroke-width="0.1"/>
<path d="M10.8857 8.9872C11.0886 9.13862 11.3301 9.08933 11.5692 9.08933C11.7566 9.08933 11.9171 9.16886 12.1095 9.19145" stroke="#92CAFF" stroke-width="0.1"/>
<path d="M9.21096 8.68082H10.0483" stroke="#92CAFF" stroke-width="0.1"/>
<path d="M5.82932 10.1446C6.08991 10.2743 6.3537 10.2468 6.63447 10.2468" stroke="#92CAFF" stroke-width="0.1"/>
<path d="M2.73751 9.12337H3.99355" stroke="#92CAFF" stroke-width="0.1"/>
<path d="M1.12721 8.61273C1.43662 8.65471 1.74836 8.71486 2.06119 8.71486" stroke="#92CAFF" stroke-width="0.1"/>
<path d="M2.70531 11.268C2.94379 11.4394 3.10603 11.5007 3.39954 11.5063C3.46866 11.5077 3.53794 11.5063 3.60709 11.5063" stroke="#92CAFF" stroke-width="0.1"/>
<path d="M2.25442 12.7999C2.55004 12.9147 2.87571 12.9712 3.1884 13.0042" stroke="#92CAFF" stroke-width="0.1"/>
<path d="M0.322069 12.2553C0.544345 12.293 0.737092 12.3574 0.966192 12.3574" stroke="#92CAFF" stroke-width="0.1"/>
<path d="M0.193233 14.5021C0.752158 14.5803 1.30418 14.5702 1.86795 14.5702" stroke="#92CAFF" stroke-width="0.1"/>
<path d="M1.86795 15.0127C2.0728 15.0374 2.27416 15.0467 2.47987 15.0467" stroke="#92CAFF" stroke-width="0.1"/>
<path d="M1.12721 17.1233C1.39733 17.1502 1.66209 17.1574 1.93236 17.1574" stroke="#92CAFF" stroke-width="0.1"/>
<path d="M2.67311 17.7361C3.13648 17.8162 3.56929 17.8042 4.02577 17.8042" stroke="#92CAFF" stroke-width="0.1"/>
<path d="M2.6087 19.7786C2.89196 19.8149 3.04128 19.7964 3.28503 19.7105" stroke="#92CAFF" stroke-width="0.1"/>
<path d="M5.7327 18.6893C6.09916 18.7561 6.45576 18.8255 6.82771 18.8255" stroke="#92CAFF" stroke-width="0.1"/>
<path d="M4.2512 15.4212C4.72085 15.4212 5.18544 15.3872 5.65395 15.3872C5.88063 15.3872 6.13658 15.5939 6.30523 15.7276C6.48704 15.8717 6.53581 16.135 6.73107 16.2382" stroke="#92CAFF" stroke-width="0.1"/>
<path d="M4.38003 13.3787C4.81256 13.3891 5.34159 13.5959 5.76489 13.4467" stroke="#92CAFF" stroke-width="0.1"/>
<path d="M8.14816 12.3574C8.3533 12.3858 8.56111 12.3729 8.76008 12.4255" stroke="#92CAFF" stroke-width="0.1"/>
<path d="M10.4348 12.7999H11.0789" stroke="#92CAFF" stroke-width="0.1"/>
<path d="M10.9179 11.1319C11.2403 11.1591 11.5382 11.1319 11.8519 11.1319" stroke="#92CAFF" stroke-width="0.1"/>
<path d="M8.40581 14.468C8.65603 14.5645 8.85387 14.5544 9.11434 14.5702" stroke="#92CAFF" stroke-width="0.1"/>
<path d="M9.59743 14.9787C9.86842 15.0001 10.1415 15.0409 10.4133 15.0467C10.4681 15.0479 10.4876 15.0436 10.5314 15.0127" stroke="#92CAFF" stroke-width="0.1"/>
<path d="M9.17876 17.0212C9.39956 17.0696 9.6049 17.1158 9.83004 17.1309C9.98041 17.141 10.133 17.1418 10.2738 17.1914" stroke="#92CAFF" stroke-width="0.1"/>
<path d="M10.9179 17.7701C11.0268 17.7701 12.2454 17.8574 12.3027 17.7361" stroke="#92CAFF" stroke-width="0.1"/>
<path d="M10.7891 19.8127C11.0466 19.9022 11.2656 19.9148 11.5298 19.9148" stroke="#92CAFF" stroke-width="0.1"/>
<path d="M3.57487 2.79147C3.66764 2.81109 3.84209 2.84511 3.89693 2.94656C3.92969 3.00715 3.96562 3.08902 4.02576 3.12433C4.10471 3.1707 4.17937 3.21745 4.2512 3.26807" stroke="#3F7ABE" stroke-width="0.1"/>
<path d="M1.19162 3.57348C1.24083 3.50885 1.33241 3.30212 1.41625 3.30212" stroke="#3F7ABE" stroke-width="0.1"/>
<path d="M3.67149 2.7234C3.80558 2.86513 4.11331 3.16595 4.31561 3.16595" stroke="#3F79BD" stroke-width="0.1"/>
<path d="M0 5.88934C0.287571 6.01961 0.711381 6.50146 1.04849 6.29785C1.3288 6.12853 1.7143 6.12763 2.03614 6.12763C2.43631 6.12763 2.87071 6.16341 3.23672 5.99146C3.46526 5.8841 3.6291 5.81769 3.77528 5.62456C3.86088 5.51146 3.91518 5.36681 3.99356 5.24253" stroke="#3F79BD" stroke-width="0.1"/>
<path d="M5.99035 4.79998C6.49487 4.79998 6.94441 4.80914 7.42173 4.65625C7.59675 4.60019 7.73005 4.37415 7.89051 4.28934" stroke="#3F79BD" stroke-width="0.1"/>
<path d="M9.24316 3.50637C9.42534 3.38895 9.70209 3.24596 9.80677 3.0468C9.84518 2.97371 9.86242 2.89361 9.9517 2.89361" stroke="#3F79BD" stroke-width="0.1"/>
<path d="M9.11434 4.18722C9.27032 4.28465 9.42675 4.36513 9.5957 4.42466" stroke="#3F79BD" stroke-width="0.1"/>
<path d="M11.3366 4.62977C11.5059 4.69187 11.6036 4.78785 11.7537 4.86721" stroke="#3F79BD" stroke-width="0.1"/>
<path d="M10.8535 6.29784C11.0646 6.07468 11.3474 5.8322 11.6246 5.70399C11.6843 5.67638 11.7405 5.64495 11.8 5.617C11.84 5.59821 11.843 5.53655 11.8841 5.51487" stroke="#3F79BD" stroke-width="0.1"/>
<path d="M14.4606 4.9702C15.1676 4.98485 15.5019 5.57095 15.9904 5.97256C16.1362 6.09246 16.2554 6.22045 16.4251 6.30542C16.6629 6.42446 16.8471 6.42325 17.1015 6.46807" stroke="#3F79BD" stroke-width="0.1"/>
<path d="M15.0081 7.08082C15.2748 7.04258 15.4463 7.01367 15.62 6.80848C15.697 6.7175 15.7191 6.60243 15.8132 6.53614" stroke="#3F79BD" stroke-width="0.1"/>
<path d="M10.9823 6.80848C11.1901 6.93397 11.4161 7.04678 11.6586 7.04678" stroke="#3F79BD" stroke-width="0.1"/>
<path d="M9.14655 6.53614C8.89546 6.53614 8.64437 6.53614 8.39328 6.53614C8.27707 6.53614 8.12422 6.56751 8.01934 6.50966C7.74943 6.36081 7.64232 6.21127 7.48793 5.95742C7.27288 5.60383 7.21347 5.23557 6.7633 5.1404" stroke="#3F79BD" stroke-width="0.1"/>
<path d="M7.89051 6.77444C7.74221 6.83944 7.62984 6.88871 7.47541 6.92952C7.42628 6.9425 7.29905 6.99902 7.27144 7.04678C7.18312 7.19955 7.15264 7.21699 6.98874 7.21699" stroke="#3F79BD" stroke-width="0.1"/>
<path d="M3.60709 7.18295C3.40947 7.08448 3.2029 7.01722 2.99696 6.94466C2.94737 6.92718 2.88441 6.87612 2.86635 6.82362C2.82013 6.68928 2.72735 6.58273 2.67311 6.46806" stroke="#3F79BD" stroke-width="0.1"/>
<path d="M14.686 2.0085C15.0198 2.11958 15.2942 2.41701 15.6522 2.41701" stroke="#3F79BD" stroke-width="0.1"/>
<path d="M7.11756 7.18295C7.44178 7.1395 7.9018 7.14712 8.01933 6.77444" stroke="#3F79BD" stroke-width="0.1"/>
<path d="M7.43962 7.96593C7.85352 7.97587 8.24534 8.17018 8.66346 8.17018" stroke="#3F79BD" stroke-width="0.1"/>
<path d="M4.57327 8.85103C4.97554 8.85103 5.4299 8.76752 5.66828 8.38957C5.81128 8.16284 5.84597 8.03812 6.11916 7.96593" stroke="#3F79BD" stroke-width="0.1"/>
<path d="M4.47665 9.53188C4.63246 9.69657 4.87657 9.94038 5.12077 9.94038" stroke="#3F79BD" stroke-width="0.1"/>
<path d="M1.35266 10.7574C1.69649 10.3431 2.26995 10.2669 2.38325 9.66805" stroke="#3F79BD" stroke-width="0.1"/>
<path d="M1.25604 11.3361C1.41008 11.3618 1.53696 11.4042 1.69082 11.4042C1.79352 11.4042 1.89073 11.3702 1.99678 11.3702" stroke="#3F79BD" stroke-width="0.1"/>
<path d="M3.92915 11.6085C4.17678 11.6684 4.40253 11.799 4.65199 11.8468C4.75649 11.8667 4.98319 11.9568 5.08857 11.9073C5.23905 11.8366 5.41251 11.7903 5.57166 11.7182C5.95331 11.5453 6.59857 11.5444 6.80981 11.0978C6.91559 10.8742 7.07163 10.7914 7.31079 10.7914C7.3877 10.7914 7.46661 10.7858 7.54339 10.7914C7.64834 10.7991 7.72305 10.8904 7.82609 10.8936C7.97137 10.8981 8.05191 10.9909 8.18036 11.0297C8.41482 11.1006 8.66363 11.1861 8.9032 11.2321C8.99682 11.2501 9.15128 11.2433 9.22706 11.181C9.40126 11.0378 9.44181 10.8315 9.57238 10.6628C9.73273 10.4557 10.0644 10.3935 10.2612 10.2316C10.3651 10.1462 10.4648 10.1177 10.5475 9.99145C10.6402 9.84988 10.7232 9.70406 10.8213 9.56592" stroke="#3F79BD" stroke-width="0.1"/>
<path d="M6.63447 9.97442C7.03967 9.67209 7.46603 9.41768 7.9084 9.18388C8.13157 9.06593 8.54707 8.84563 8.63125 8.57868" stroke="#3F79BD" stroke-width="0.1"/>
<path d="M7.66507 8.06805C7.82535 8.06805 7.95858 8.1359 8.11434 8.1359" stroke="#3F79BD" stroke-width="0.1"/>
<path d="M12.5604 8.81698C12.868 8.74309 13.0994 8.52671 13.3763 8.37821C13.5908 8.26317 13.7856 8.1748 13.9524 7.9924C14.0371 7.89984 14.1091 7.7864 14.2101 7.71249C14.2739 7.66579 14.3354 7.66831 14.3961 7.6255" stroke="#3F79BD" stroke-width="0.1"/>
<path d="M15.3945 7.89783C15.6842 8.01731 16.0024 8.17713 16.3106 8.23637C16.4982 8.27242 16.7764 8.25372 16.9404 8.34039" stroke="#3F79BD" stroke-width="0.1"/>
<path d="M14.8148 10.0425C14.9976 9.94962 15.1701 9.87982 15.3266 9.73991C15.3984 9.67569 15.4896 9.59178 15.5753 9.5489C15.7142 9.47933 15.8915 9.30654 16.0387 9.29358C16.2135 9.27818 16.4125 9.17479 16.477 9.00044C16.5155 8.89656 16.5753 8.71869 16.6828 8.68082" stroke="#3F79BD" stroke-width="0.1"/>
<path d="M12.2383 9.66805C12.4529 9.80979 12.6177 9.97443 12.8825 9.97443" stroke="#3F79BD" stroke-width="0.1"/>
<path d="M15.1691 10.7234C15.528 10.8211 15.8739 10.9827 16.2391 11.0562C16.4143 11.0915 16.5694 11.1297 16.7365 11.2075C16.8448 11.258 17.069 11.3703 17.1981 11.2945C17.3229 11.2212 17.3628 10.9996 17.4253 10.8784C17.5098 10.7148 17.6779 10.6066 17.7617 10.4491C17.8201 10.3394 17.9123 10.2082 18.0176 10.1446C18.1947 10.0376 18.3959 9.89332 18.4863 9.7021" stroke="#3F79BD" stroke-width="0.1"/>
<path d="M17.2947 11.234C17.5142 11.3755 17.6025 11.3702 17.8565 11.3702C17.956 11.3702 18.0335 11.3021 18.1321 11.3021" stroke="#3F79BD" stroke-width="0.1"/>
<path d="M17.3269 11.8808C17.6358 11.8685 17.7704 11.6678 18.0354 11.5744" stroke="#3F79BD" stroke-width="0.1"/>
<path d="M11.9485 11.6425C12.1844 11.8006 12.5999 12.2631 12.929 11.9848C13.0294 11.8999 13.1667 11.91 13.2689 11.8127C13.3543 11.7315 13.4874 11.6798 13.5606 11.5895C13.6928 11.4265 13.9566 11.3122 14.1457 11.234C14.379 11.1375 14.6184 11.0739 14.8613 11.0127C14.9554 10.9891 15.0191 10.9237 15.1047 10.8936" stroke="#3F79BD" stroke-width="0.1"/>
<path d="M9.46859 11.3361C9.52765 11.7454 9.55736 12.1955 9.25925 12.5106C9.17199 12.6028 9.17618 12.7308 9.2181 12.8416C9.30194 13.0631 9.69179 12.9179 9.85507 13.0042" stroke="#3F79BD" stroke-width="0.1"/>
<path d="M7.69727 12.7319C7.57583 12.8694 7.47652 13.0074 7.43783 13.1914C7.42641 13.2457 7.34609 13.3158 7.30364 13.3446C7.11302 13.4741 6.83903 13.4467 6.62552 13.4467C6.47555 13.4467 6.3314 13.4808 6.18358 13.4808" stroke="#3F79BD" stroke-width="0.1"/>
<path d="M4.05797 13.4468C3.83498 13.4468 3.47341 13.4994 3.38164 13.2085" stroke="#3F79BD" stroke-width="0.1"/>
<path d="M1.90015 12.7319C1.72935 12.7654 1.3819 12.8618 1.28824 12.6638" stroke="#3F79BD" stroke-width="0.1"/>
<path d="M1.35266 11.7106C1.56545 11.6058 1.77823 11.4743 1.95026 11.3021C1.98803 11.2643 2.01643 11.2236 2.06119 11.2" stroke="#3F79BD" stroke-width="0.1"/>
<path d="M0.547501 14.8425C0.877717 14.9405 1.35835 15.1165 1.71408 15.0051C2.08895 14.8877 2.48842 14.8476 2.86455 14.7233C3.07579 14.6536 3.35553 14.6217 3.51047 14.417C3.59526 14.3049 3.80245 14.2227 3.91841 14.1843C4.09265 14.1266 4.16969 14.0262 4.31562 13.9233" stroke="#3F79BD" stroke-width="0.1"/>
<path d="M7.2786 13.7872C7.39007 13.9885 7.48335 14.2277 7.67223 14.3659C7.81601 14.4711 7.95732 14.557 8.10164 14.6647C8.22002 14.753 8.36484 14.7937 8.48454 14.8841C8.55655 14.9385 8.66371 14.9987 8.74934 15.0203C8.91919 15.063 9.10988 15.1829 9.27538 15.1829" stroke="#3F79BD" stroke-width="0.1"/>
<path d="M9.50081 12.6978C10.02 12.9466 10.5679 13.1898 11.1505 13.2085C11.2676 13.2122 11.4632 13.2407 11.5763 13.2066C11.6193 13.1936 11.6319 13.201 11.6783 13.2274C11.8117 13.3033 11.9939 13.2883 12.1417 13.3106" stroke="#3F79BD" stroke-width="0.1"/>
<path d="M11.0145 14.5702C11.2995 14.3933 11.5685 14.2229 11.8018 13.9763C11.8956 13.8771 11.858 13.7467 11.9485 13.651" stroke="#3F79BD" stroke-width="0.1"/>
<path d="M14.7826 13.3106C15.0135 13.3068 15.243 13.3213 15.4196 13.1479C15.4876 13.0812 15.5657 13.0156 15.6379 12.9531C15.6895 12.9085 15.7468 12.7912 15.8007 12.7659C15.9578 12.6921 16.1613 12.7319 16.3285 12.7319" stroke="#3F79BD" stroke-width="0.1"/>
<path d="M17.4879 12.1872C17.4879 12.5533 17.5045 12.7958 17.9066 12.9021" stroke="#3F79BD" stroke-width="0.1"/>
<path d="M14.847 13.4808C15.0843 13.6803 15.3161 13.8858 15.5824 14.0406C15.6167 14.0605 15.6889 14.0907 15.7094 14.1276C15.7677 14.2323 15.7916 14.3583 15.9098 14.3999" stroke="#3F79BD" stroke-width="0.1"/>
<path d="M17.4235 14.6723C17.8944 14.6723 18.3959 14.7286 18.8639 14.6704C18.9949 14.6541 19.1379 14.6716 19.202 14.5361C19.3371 14.2505 19.5036 14.1323 19.8068 14.0255" stroke="#3F79BD" stroke-width="0.1"/>
<path d="M19.0016 15.0808C19.0547 15.2953 19.1195 15.5541 19.3416 15.6406C19.4511 15.6833 19.5942 15.6595 19.7102 15.6595" stroke="#3F79BD" stroke-width="0.1"/>
<path d="M16.1353 14.9446C16.0704 15.1922 16.0013 15.2677 15.8329 15.4061C15.7969 15.4357 15.706 15.5023 15.6844 15.5423C15.57 15.7538 15.5556 15.9058 15.5556 16.1626C15.5556 16.3633 15.9357 16.5076 16.087 16.5787C16.1938 16.6288 16.2526 16.6791 16.3285 16.7678C16.3757 16.8229 16.3933 16.9021 16.4395 16.9531C16.4966 17.0162 16.5666 17.0549 16.6184 17.1233" stroke="#3F79BD" stroke-width="0.1"/>
<path d="M11.6245 15.5902C11.4889 15.5489 11.0789 15.4485 11.0789 15.251" stroke="#3F79BD" stroke-width="0.1"/>
<path d="M8.14815 15.1148C8.09903 15.3052 7.97791 15.4699 7.8905 15.6444C7.86713 15.691 7.8 15.744 7.79389 15.7957C7.78042 15.9096 7.68793 16.0588 7.61854 16.1531C7.47004 16.3549 7.83907 16.4973 7.94597 16.5446C8.11954 16.6214 8.33234 16.6339 8.49705 16.7318C8.61451 16.8017 8.71076 16.9651 8.82448 17.0552" stroke="#3F79BD" stroke-width="0.1"/>
<path d="M5.76488 16.5787C5.49396 16.7609 5.22374 16.9687 4.97583 17.1725C4.81475 17.3049 4.61346 17.3768 4.42833 17.4638C4.34978 17.5007 4.31747 17.6907 4.29771 17.7682C4.27317 17.8646 4.21352 17.9045 4.21899 18.0084C4.22281 18.0811 4.28961 18.1531 4.32276 18.2127C4.3507 18.2629 4.51823 18.3899 4.5661 18.4094C4.70519 18.4659 4.83004 18.5298 4.95973 18.6212" stroke="#3F79BD" stroke-width="0.1"/>
<path d="M0.354259 16.5787C0.403369 16.6416 0.506845 16.8246 0.578895 16.85" stroke="#3F79BD" stroke-width="0.1"/>
<path d="M0.289854 17.9404C0.608171 17.8272 0.924152 17.7009 1.24888 17.6094C1.3089 17.5925 1.41994 17.5939 1.44927 17.5318" stroke="#3F79BD" stroke-width="0.1"/>
<path d="M1.96457 19.0297C2.1323 18.9018 2.49152 18.7362 2.57648 18.5266C2.60736 18.4505 2.59451 18.3766 2.6731 18.3489" stroke="#3F79BD" stroke-width="0.1"/>
<path d="M6.05475 19.7446C6.05926 20.0496 6.11759 20.0511 6.33745 19.9072C6.41366 19.8574 6.4447 19.7728 6.52174 19.7276C6.60221 19.6803 6.69372 19.6604 6.78118 19.616C6.881 19.5653 6.97135 19.4842 7.06925 19.4382C7.21696 19.3688 7.67671 19.2795 7.80999 19.389C7.99186 19.5386 8.18555 19.6425 8.4219 19.6425C8.69666 19.6425 8.93182 19.6668 9.17159 19.5063C9.28589 19.4298 9.42077 19.3148 9.51691 19.2132C9.58214 19.1442 9.68833 18.9736 9.79066 18.9616C9.85453 18.9541 9.99001 18.8413 10.0626 18.8084C10.1586 18.765 10.2524 18.6671 10.3239 18.5872C10.4009 18.5009 10.4396 18.4175 10.4992 18.3167C10.5897 18.1636 10.7355 18.0082 10.7891 17.8382" stroke="#3F79BD" stroke-width="0.1"/>
<path d="M7.11756 18.2467C7.30374 18.1142 7.58656 17.9719 7.72947 17.7777C7.78213 17.7061 7.82546 17.6204 7.88335 17.5545C7.97769 17.4471 8.00774 17.3957 8.14815 17.3957" stroke="#3F79BD" stroke-width="0.1"/>
<path d="M12.496 18.1106C12.6869 18.2501 12.8919 18.4388 13.09 18.5645C13.1544 18.6053 13.2568 18.6552 13.3333 18.6552" stroke="#3F79BD" stroke-width="0.1"/>
<path d="M12.7214 17.3276C12.8226 17.2639 12.9654 17.1257 13.0829 17.0969C13.1952 17.0692 13.2815 17.0289 13.3817 16.9701C13.5208 16.8885 13.6645 16.8754 13.7842 16.7489" stroke="#3F79BD" stroke-width="0.1"/>
<path d="M14.7182 18.5531C14.8897 18.4673 15.0254 18.3375 15.1942 18.2467C15.4357 18.1169 15.6949 18.0235 15.9421 17.9063C16.0255 17.8667 16.1231 17.7919 16.214 17.7626C16.3872 17.7066 16.5334 17.6371 16.6828 17.5318" stroke="#3F79BD" stroke-width="0.1"/>
<path d="M14.8792 18.7574C14.9422 18.9258 14.9991 19.114 15.1441 19.2264C15.2702 19.3242 15.464 19.2934 15.6093 19.3096C15.755 19.3258 15.906 19.3301 16.0494 19.3626C16.1189 19.3783 16.1387 19.4593 16.1997 19.4987C16.5829 19.7463 16.8805 19.6765 17.2947 19.6765C17.4325 19.6765 17.81 19.7589 17.81 19.5233C17.81 19.2877 17.6982 19.0662 17.9406 18.9295C18.143 18.8154 18.3817 18.759 18.5329 18.5701C18.641 18.435 18.6804 18.2858 18.7261 18.12C18.7535 18.0206 18.8018 18.0584 18.8728 18.0084" stroke="#3F79BD" stroke-width="0.1"/>
<path d="M13.8487 19.6765C14.181 19.7419 14.3603 19.5076 14.6538 19.4042" stroke="#3F79BD" stroke-width="0.1"/>
</g>
<defs>
<clipPath id="clip0_1952_36456">
<rect width="20" height="20" fill="white"/>
</clipPath>
</defs>
</svg>
