<svg width="32" height="32" viewBox="0 0 32 32" fill="none" xmlns="http://www.w3.org/2000/svg">
<path d="M2.23275 22.685C2.10025 22.3725 1.97275 22.06 1.84775 21.7475C0.905247 19.37 2.08775 17.225 3.14275 15.125L4.67275 12.085C4.98025 11.4725 5.45275 10.9575 6.03275 10.5975L10.4327 7.8675L14.7802 3.3725C15.0501 3.09246 15.3945 2.89553 15.7727 2.805L18.7327 2.09C20.1652 1.7475 20.7802 1.8025 21.2427 2.46C22.8452 4.735 23.9177 6.6075 25.3452 8.875C26.1227 10.11 27.9177 12.9475 28.0302 13.135C28.3752 13.715 28.2352 14.2 28.2227 14.865C28.1927 16.3975 28.4627 17.9375 29.0227 19.365C29.1902 19.79 29.3827 20.21 29.4702 20.6575C29.5502 21.06 29.4427 23.6175 29.3602 24.4825C29.2927 25.185 27.6327 27.8075 27.0377 28.125C26.3827 28.475 21.5277 30.26 20.4552 30.565C19.3827 30.87 14.7327 29.8075 12.3177 29.4375C10.8252 29.21 9.33025 28.98 7.83775 28.7525C6.54275 28.555 5.25525 28.705 4.53025 27.3975C3.67775 25.8675 2.91275 24.295 2.23275 22.685V22.685Z" fill="url(#paint0_linear_1372_21443)"/>
<path d="M7.83426 28.7499C9.32676 28.9774 10.8218 29.2074 12.3143 29.4349C13.0918 29.5549 14.1018 29.7449 15.1493 29.9399C14.4443 29.1049 13.3918 28.1149 12.6868 27.2799C12.5343 27.0999 12.3793 26.9124 12.3243 26.6824C12.2668 26.4374 12.3318 26.1849 12.3993 25.9424C12.6143 25.1474 12.6693 24.2849 12.8843 23.4899C11.5518 23.7999 8.48176 24.3899 8.22926 24.3174C7.94926 24.2374 7.72176 24.0349 7.50426 23.8374C5.92176 22.3924 4.68426 20.9349 3.47426 19.1724C3.33176 18.9649 3.18676 18.7499 3.13426 18.5024C3.08426 18.2699 3.12176 18.0299 3.15926 17.7974C3.24926 17.2174 3.44926 15.6099 3.60926 14.1924L3.13926 15.1249C2.08676 17.2249 0.904264 19.3699 1.84926 21.7474C1.97426 22.0624 2.10176 22.3749 2.23426 22.6849C2.91243 24.2945 3.67773 25.866 4.52676 27.3924C5.24926 28.7024 6.53926 28.5524 7.83426 28.7499Z" fill="url(#paint1_linear_1372_21443)"/>
<path d="M21.2622 2.48745C20.9547 2.12495 20.3547 2.19495 19.7247 2.76995L17.4597 5.03495C17.3197 5.17495 17.2447 5.36745 17.2572 5.56495L17.4997 10.1899C17.5072 10.3449 17.5647 10.4899 17.6647 10.6074C18.4697 11.5474 21.3147 16.0649 22.1397 16.0649C22.9622 16.0649 24.3997 12.8599 25.1322 12.8774C25.2572 12.8799 25.9097 12.9199 26.5472 13.1149C27.1422 13.2949 27.3747 12.4774 27.2522 11.8974C26.6372 10.9224 25.8097 9.61495 25.3447 8.87495C23.9222 6.61745 22.8522 4.74995 21.2622 2.48745V2.48745Z" fill="url(#paint2_linear_1372_21443)"/>
<path d="M10.7228 11.5925C11.5553 11.4675 14.3328 10.995 14.8553 10.79C15.8753 10.3875 16.7753 8.6725 17.3703 7.75C17.3703 7.75 17.5753 10.7575 17.3703 11.9325C17.2278 12.75 16.6903 17.025 16.1503 18.05L12.8853 23.49L8.08781 18.6925C7.68031 18.285 7.42031 18.07 7.27281 17.4925C6.93531 16.1725 6.32281 14.225 6.32031 13.0775C6.31781 11.93 9.41031 11.7875 10.7228 11.5925V11.5925Z" fill="url(#paint3_linear_1372_21443)"/>
<path d="M16.7891 5.18484C16.4691 4.80234 16.3791 4.25984 16.4891 3.77484C16.5816 3.36984 17.4216 2.58734 17.6941 2.33984L15.7716 2.80484C15.3938 2.8964 15.0497 3.09317 14.7791 3.37234L10.4316 7.86734C10.4316 7.86734 14.6416 6.11234 16.7891 5.18484Z" fill="url(#paint4_linear_1372_21443)"/>
<path d="M29.02 19.3651C28.6002 18.2934 28.3424 17.1652 28.255 16.0176C26.82 17.0001 26.0175 18.2751 23.7075 18.5876C23.095 18.6701 22.1475 18.7851 21.55 18.9426C20.81 19.1376 20.125 19.6851 19.015 19.7876C18.225 19.8626 16.2325 19.8051 16.5325 20.2501C16.8325 20.6951 18.62 21.5926 19.065 21.9551C19.6975 22.4626 20.2475 23.0601 20.775 23.6751C21.05 23.9976 21.4625 24.7801 21.9425 24.9926C22.065 25.0476 22.195 25.0626 22.325 25.0226C22.5525 24.9551 22.735 24.7901 22.9125 24.6326C24.6335 23.1079 26.5681 21.8428 28.655 20.8776C28.8775 20.7751 29.1175 20.6601 29.2275 20.4401C29.275 20.3426 29.295 20.2101 29.2975 20.0676C29.21 19.8326 29.1125 19.6001 29.02 19.3651Z" fill="url(#paint5_linear_1372_21443)"/>
<path d="M29.467 20.6577C29.4345 20.4952 29.387 20.3352 29.332 20.1777C29.2895 20.3252 29.197 20.4877 28.997 20.6402C28.422 21.0802 26.2045 21.7577 23.7645 23.8952C22.172 25.2902 22.1695 25.4777 21.827 27.0152C21.267 29.5327 20.377 30.4477 20.207 30.6027C20.2995 30.5927 20.382 30.5802 20.4495 30.5602C21.5245 30.2577 26.377 28.4702 27.032 28.1202C27.627 27.8027 29.287 25.1802 29.3545 24.4777C29.4395 23.6177 29.547 21.0602 29.467 20.6577V20.6577Z" fill="url(#paint6_linear_1372_21443)"/>
<defs>
<linearGradient id="paint0_linear_1372_21443" x1="21.9042" y1="5.26" x2="10.3872" y2="34.521" gradientUnits="userSpaceOnUse">
<stop stop-color="#9E958E"/>
<stop offset="0.46" stop-color="#8E8884"/>
<stop offset="1" stop-color="#757575"/>
</linearGradient>
<linearGradient id="paint1_linear_1372_21443" x1="2.21401" y1="30.0341" x2="11.792" y2="19.3839" gradientUnits="userSpaceOnUse">
<stop stop-color="#37474F"/>
<stop offset="0.612" stop-color="#42565F" stop-opacity="0.192"/>
<stop offset="0.757" stop-color="#455A64" stop-opacity="0"/>
</linearGradient>
<linearGradient id="paint2_linear_1372_21443" x1="24.888" y1="16.6754" x2="18.6942" y2="2.9362" gradientUnits="userSpaceOnUse">
<stop stop-color="#9E958E"/>
<stop offset="0.442" stop-color="#AEA298"/>
<stop offset="1" stop-color="#C9B8A9"/>
</linearGradient>
<linearGradient id="paint3_linear_1372_21443" x1="9.37581" y1="26.1362" x2="11.8758" y2="12.5737" gradientUnits="userSpaceOnUse">
<stop stop-color="#4C5C64"/>
<stop offset="1" stop-color="#455A64" stop-opacity="0"/>
</linearGradient>
<linearGradient id="paint4_linear_1372_21443" x1="10.4321" y1="5.10384" x2="17.6946" y2="5.10384" gradientUnits="userSpaceOnUse">
<stop stop-color="#4C5C64"/>
<stop offset="1" stop-color="#455A64" stop-opacity="0"/>
</linearGradient>
<linearGradient id="paint5_linear_1372_21443" x1="21.8152" y1="19.1518" x2="30.404" y2="22.6918" gradientUnits="userSpaceOnUse">
<stop stop-color="#9E958E"/>
<stop offset="0.25" stop-color="#AEA298"/>
<stop offset="0.566" stop-color="#C9B8A9"/>
</linearGradient>
<linearGradient id="paint6_linear_1372_21443" x1="26.161" y1="30.8395" x2="24.401" y2="23.897" gradientUnits="userSpaceOnUse">
<stop stop-color="#37474F"/>
<stop offset="0.808" stop-color="#42565F" stop-opacity="0.192"/>
<stop offset="1" stop-color="#455A64" stop-opacity="0"/>
</linearGradient>
</defs>
</svg>
